<svg aria-hidden="true" style="position: absolute; width: 0; height: 0; overflow: hidden;" version="1.1" xmlns="http://www.w3.org/2000/svg" xmlns:xlink="http://www.w3.org/1999/xlink">
    <defs>
        <symbol id="icon-instagram" viewBox="0 0 32 32">
            <path d="M9.085 0.008c-5.001 0-9.085 4.176-9.085 9.29v13.426c0 5.106 4.084 9.274 9.085 9.274h13.132c4.994 0 9.070-4.176 9.070-9.29v-13.419c0-5.114-4.076-9.29-9.078-9.29l-13.124 0.008zM9.085 2.469h13.124c3.7 0 6.671 3.038 6.671 6.829v13.419c0 3.791-2.971 6.829-6.664 6.829h-13.13c-3.707 0-6.678-3.038-6.678-6.814v-13.428c0.008-3.798 2.978-6.836 6.678-6.836zM25.277 4.93c-0.669 0-1.202 0.546-1.202 1.23s0.534 1.23 1.203 1.23 1.202-0.546 1.202-1.23c0-0.685-0.534-1.23-1.203-1.23zM15.652 7.39c-4.633 0-8.424 3.876-8.424 8.613s3.791 8.613 8.424 8.613c4.632 0 8.423-3.876 8.423-8.613s-3.79-8.613-8.424-8.613zM15.652 9.851c3.339 0 6.016 2.738 6.016 6.152s-2.677 6.152-6.016 6.152c-3.34 0-6.017-2.738-6.017-6.152s2.678-6.152 6.016-6.152z"></path>
        </symbol>
        <symbol id="icon-linked-in" viewBox="0 0 32 32">
            <path d="M26.882 0.655h-21.638c-2.471 0-4.482 2.005-4.482 4.469v21.58c0 2.466 2.011 4.472 4.483 4.472h21.637c2.472 0 4.483-2.006 4.483-4.472v-21.579c0-2.465-2.011-4.471-4.483-4.471zM29.572 26.705c-0.004 1.482-1.207 2.683-2.689 2.683 0 0 0 0 0 0h-21.638c0 0 0 0 0 0-1.483 0-2.685-1.2-2.689-2.681v-21.581c0.004-1.482 1.207-2.682 2.689-2.682 0 0 0 0 0 0h21.638c0 0 0 0 0 0 1.483 0 2.685 1.2 2.689 2.682v21.581z"></path>
            <path d="M24.478 22.777h-3.285v-5.486c0-0.379-0.027-0.753-0.123-1.122-0.392-1.522-2.088-1.433-2.763-0.712-0.339 0.363-0.56 0.773-0.57 1.279-0.002 0.12-0.009 0.241-0.009 0.361v5.679h-3.279v-10.182h3.278v1.366l0.026 0.011 0.070-0.095c0.329-0.456 0.706-0.861 1.208-1.134 0.561-0.306 1.166-0.408 1.795-0.39 0.682 0.020 1.33 0.173 1.912 0.54 0.747 0.47 1.203 1.158 1.47 1.984 0.208 0.643 0.276 1.307 0.277 1.979 0.002 1.934 0 3.868 0 5.803 0 0.038-0.003 0.076-0.005 0.119zM12.445 22.783h-3.261v-10.193h3.261v10.193zM10.954 7.522c1.027-0.002 1.754 0.729 1.757 1.766 0.004 1.026-0.734 1.752-1.781 1.752-1.021 0-1.75-0.73-1.752-1.757s0.738-1.76 1.777-1.762z"></path>
        </symbol>
        <symbol id="icon-menu" viewBox="0 0 33 20">
            <path d="M0 0h33v3.837H0zM0 7.674h33v3.837H0zM0 15.35h33v3.837H0z"></path>
        </symbol>
        <symbol id="icon-star" viewBox="0 0 32 32">
            <path d="M14.437 1.848c0.457-1.402 2.44-1.402 2.897 0l2.668 8.189c0.205 0.616 0.776 1.051 1.449 1.051 0 0 0 0 0 0h8.626c1.478 0 2.091 1.893 0.894 2.758l-6.971 5.051c-0.384 0.28-0.63 0.728-0.63 1.234 0 0.169 0.027 0.332 0.078 0.483l-0.003-0.011 2.664 8.177c0.457 1.403-1.147 2.572-2.342 1.707l-6.988-5.062c-0.248-0.181-0.558-0.29-0.894-0.29s-0.646 0.109-0.898 0.293l0.004-0.003-6.988 5.062c-1.195 0.866-2.799-0.303-2.342-1.707l2.664-8.177c0.048-0.141 0.075-0.304 0.075-0.473 0-0.506-0.246-0.954-0.625-1.231l-0.004-0.003-6.971-5.051c-1.196-0.866-0.582-2.758 0.894-2.758h8.625c0.001 0 0.001 0 0.002 0 0.673 0 1.244-0.436 1.446-1.041l0.003-0.011 2.667-8.189z"></path>
        </symbol>
        <symbol id="icon-surface" viewBox="0 0 32 32">
            <path d="M15.643 0c-8.618 0-15.643 7.184-15.643 15.999s7.024 15.999 15.643 15.999 15.643-7.184 15.643-15.999c0-8.815-7.024-15.999-15.643-15.999zM15.643 2.462c3.144 0 6.016 1.115 8.28 2.984-1.15 1.446-3.264 3.454-6.806 4.77-1.926-3.562-3.535-5.838-4.656-7.346 0.953-0.254 2.049-0.402 3.178-0.408h0.004zM10.078 3.73c0.941 1.238 2.64 3.57 4.663 7.215-5.197 1.392-9.89 1.485-11.846 1.423 1.046-3.846 3.693-6.992 7.182-8.638zM25.654 7.154c2.007 2.367 3.227 5.457 3.227 8.831 0 0.531-0.030 1.055-0.089 1.57l0.006-0.063c-0.437-0.062-0.76-0.115-1.317-0.162-0.702-0.056-1.521-0.089-2.346-0.089-1.643 0-3.256 0.127-4.83 0.373l0.175-0.022c-0.815-2.147-1.574-3.853-2.41-5.513l0.154 0.337c3.715-1.454 6.069-3.6 7.43-5.262zM15.884 13.176c0.646 1.239 1.379 2.856 2.040 4.509l0.141 0.399c-3.166 0.961-6.046 3.154-8.258 5.192-1.012 0.929-1.949 1.88-2.838 2.876l-0.035 0.039c-2.789-2.504-4.536-6.122-4.536-10.148 0-0.013 0-0.025 0-0.038v0.002c0-0.408 0.031-0.792 0.061-1.185 1.715 0.070 7.198 0.123 13.425-1.646zM23.849 19.714c1.85-0.070 3.309 0.062 4.467 0.192-0.894 3.027-2.737 5.541-5.178 7.264l-0.042 0.028c-0.398-2.53-1.015-4.961-1.76-7.253 0.697-0.1 1.563-0.183 2.439-0.228l0.073-0.003zM18.93 20.391c0.858 2.53 1.534 5.23 1.918 8.062-1.535 0.685-3.327 1.084-5.212 1.084h-0c-2.474 0-4.768-0.7-6.746-1.892 0.67-0.73 1.496-1.616 2.52-2.546 2.128-1.954 4.903-3.946 7.52-4.708z"></path>
        </symbol>
        <symbol id="icon-behance" viewBox="0 0 32 32">
            <path d="M26.72 0.169h-22.135c-2.528 0-4.585 2.051-4.585 4.574v22.072c0 2.522 2.057 4.574 4.586 4.574h22.135c2.529 0 4.585-2.052 4.585-4.574v-22.072c0-2.523-2.057-4.574-4.586-4.574zM29.472 26.815c-0.004 1.516-1.234 2.744-2.751 2.744-0 0-0.001 0-0.001 0h-22.135c0 0 0 0 0 0-1.517 0-2.747-1.228-2.751-2.744v-22.073c0.004-1.517 1.234-2.745 2.751-2.745 0 0 0.001 0 0.001 0h22.135c0 0 0 0 0 0 1.517 0 2.747 1.227 2.751 2.743v22.073z"></path>
            <path d="M14.736 13.035c0-2.018-1.645-3.658-3.668-3.658h-5.502v12.805h5.502c2.023 0 3.668-1.641 3.668-3.659-0-1.092-0.481-2.072-1.242-2.74l-0.004-0.004c0.765-0.672 1.246-1.652 1.246-2.744 0-0 0-0.001 0-0.001v0zM12.901 18.523c-0.003 1.011-0.823 1.829-1.834 1.829 0 0 0 0 0 0h-3.668v-3.657h3.668c0 0 0 0 0 0 1.011 0 1.831 0.818 1.834 1.828v0zM7.399 14.864v-3.659h3.668c0 0 0 0 0 0 1.011 0 1.831 0.819 1.834 1.829v0c-0.003 1.011-0.823 1.829-1.834 1.829 0 0 0 0 0 0h-3.668zM21.156 13.035c-2.529 0-4.585 2.052-4.585 4.574s2.057 4.573 4.585 4.573c1.687-0.002 3.16-0.911 3.961-2.265l0.012-0.021-1.588-0.916c-0.486 0.827-1.371 1.373-2.383 1.373-1.19 0-2.203-0.754-2.589-1.81l-0.006-0.019h7.18v-0.914c0-2.522-2.057-4.574-4.586-4.574zM18.562 16.694c0.392-1.074 1.405-1.828 2.594-1.828s2.202 0.753 2.588 1.809l0.006 0.019h-5.189zM17.488 9.377h7.337v1.829h-7.337v-1.829z"></path>
        </symbol>
        <symbol id="icon-close" viewBox="0 0 32 32">
            <path d="M32 3.223l-3.223-3.223-12.777 12.777-12.777-12.777-3.223 3.223 12.777 12.777-12.777 12.777 3.223 3.223 12.777-12.777 12.777 12.777 3.223-3.223-12.777-12.777 12.777-12.777z"></path>
        </symbol>
    </defs>
</svg>